<?xml version="1.0" encoding="utf-8" ?>
<svg xmlns="http://www.w3.org/2000/svg" xmlns:xlink="http://www.w3.org/1999/xlink" width="1024" height="1023">
	<path fill="#016670" d="M499.251 152.204C543.315 149.791 587.627 157.402 629.75 169.933C654.681 177.35 677.835 188.334 700.228 201.487Q704.746 204.093 709.193 206.821Q713.639 209.548 718.009 212.395Q722.38 215.242 726.671 218.207Q730.963 221.172 735.173 224.252Q739.382 227.332 743.507 230.525Q747.631 233.718 751.668 237.021Q755.704 240.325 759.65 243.737Q763.595 247.149 767.447 250.667Q771.298 254.184 775.052 257.805Q778.807 261.426 782.462 265.147Q786.117 268.869 789.67 272.688Q793.222 276.507 796.67 280.421Q800.118 284.335 803.458 288.341Q806.799 292.347 810.029 296.443Q813.26 300.538 816.378 304.719Q819.496 308.901 822.5 313.165C835.679 331.762 846.457 351.966 857.281 371.984Q881.497 377.088 905.962 380.821C905.158 455.784 905.954 530.831 905.962 605.804C901.594 611.344 896.203 616.48 891.433 621.727Q875.047 639.815 858.471 657.728C854.634 657.46 850.748 657.517 846.901 657.468L830.344 687.835C839.502 688.823 848.612 691.073 857.587 693.081Q875.284 697.011 892.918 701.216Q940.544 712.84 988.318 723.837C964.135 724.674 939.946 724.336 915.749 724.435L810.497 724.918C791.595 746.751 772.535 767.92 750.432 786.618C703.099 826.659 642.672 853.177 581.964 864.569C566.282 867.512 550.519 869.188 534.624 870.424C515.006 871.632 496.587 871.502 477.018 869.444Q473.539 869.059 470.067 868.608Q466.596 868.158 463.133 867.642Q459.671 867.127 456.218 866.546Q452.766 865.965 449.326 865.32Q445.885 864.675 442.457 863.965Q439.029 863.255 435.615 862.48Q432.201 861.706 428.803 860.868Q425.404 860.029 422.021 859.127Q418.639 858.225 415.274 857.26Q411.909 856.294 408.563 855.266Q405.217 854.237 401.891 853.146Q398.565 852.054 395.259 850.901Q391.954 849.747 388.672 848.531Q385.389 847.316 382.129 846.039Q378.87 844.762 375.635 843.424Q372.4 842.086 369.191 840.687Q365.982 839.288 362.8 837.829Q359.618 836.371 356.464 834.852Q353.309 833.334 350.184 831.757Q347.059 830.179 343.964 828.543Q340.869 826.907 337.806 825.214Q334.742 823.52 331.711 821.769Q328.679 820.018 325.682 818.21Q322.684 816.403 319.721 814.539Q316.757 812.675 313.829 810.756Q310.902 808.837 308.011 806.863Q305.12 804.889 302.266 802.862Q299.412 800.834 296.598 798.753Q293.783 796.672 291.007 794.538Q288.232 792.404 285.497 790.219Q282.763 788.034 280.07 785.797Q277.377 783.561 274.726 781.274C254.731 763.88 236.791 744.071 220.153 723.483L103.719 723.98Q86.5943 724.03 69.4701 723.899C60.485 723.792 51.3494 723.254 42.3979 724.171C56.8134 718.653 71.6964 714.874 86.5851 710.904C114.878 703.361 145.076 696.304 172.701 686.857C162.854 677.634 156.275 667.014 152.06 654.248C145.926 653.952 139.77 653.988 133.63 653.93C123.299 641.579 112.067 629.969 101.966 617.432C101.449 609.324 101.862 601.171 101.886 593.051C101.904 587.178 101.571 581.306 101.664 575.432C101.719 571.949 101.921 565.08 104.952 562.859C109.08 559.833 118.285 560.94 123.171 561.439C122.764 544.13 121.008 523.585 128.543 507.578C134.412 495.111 144.142 489.88 156.59 485.42C156.632 466.46 160.23 446.216 164.68 427.821C178.709 369.833 205.301 316.888 245.164 272.278Q247.578 269.586 250.045 266.943Q252.512 264.299 255.031 261.705Q257.55 259.111 260.12 256.567Q262.689 254.023 265.309 251.531Q267.929 249.038 270.597 246.598Q273.266 244.158 275.982 241.771Q278.698 239.385 281.461 237.052Q284.224 234.72 287.033 232.442Q289.841 230.165 292.695 227.944Q295.548 225.723 298.444 223.559Q301.341 221.394 304.28 219.288Q307.219 217.181 310.199 215.134Q313.179 213.086 316.199 211.097Q319.219 209.109 322.278 207.181Q325.337 205.253 328.433 203.385Q331.53 201.518 334.663 199.713Q337.795 197.907 340.963 196.164Q344.131 194.421 347.333 192.741Q350.535 191.061 353.77 189.444Q357.004 187.828 360.27 186.276Q363.536 184.724 366.832 183.237Q370.128 181.75 373.453 180.329Q376.777 178.907 380.13 177.552Q383.482 176.197 386.86 174.908Q390.239 173.62 393.642 172.398Q397.045 171.177 400.472 170.023Q403.899 168.869 407.348 167.783Q410.797 166.698 414.267 165.681Q417.737 164.663 421.226 163.715Q424.716 162.767 428.223 161.888Q431.73 161.009 435.254 160.2Q438.779 159.39 442.318 158.651C461.077 154.906 480.174 153.278 499.251 152.204Z"/>
	<path fill="#FBE180" d="M271.75 675.3C275.896 678.966 279.495 684.04 283.217 688.188L272.283 688.004L260.039 687.967C264.385 684.069 268.134 679.882 271.75 675.3Z"/>
	<path fill="#FFF9C7" d="M147.318 564.233C167.898 563.523 188.822 563.63 209.4 564.268L207.751 570.452C198.555 571.011 189.408 570.667 180.211 570.567L146.903 570.501C146.894 568.395 146.743 566.276 147.318 564.233Z"/>
	<path fill="#FFF9C7" d="M840.777 622.244L859.823 622.482C857.012 626.009 854 629.248 850.888 632.504L830.153 632.287L810.531 632.22L810.374 622.492L840.777 622.244Z"/>
	<path fill="#FFF9C7" d="M146.949 547.997L212.944 547.99C212.652 550.159 212.523 552.361 212.335 554.542C204.103 555.459 195.545 555.034 187.262 555.03L146.93 555.029L146.949 547.997Z"/>
	<path fill="#FFF9C7" d="M147.101 532.259C156.179 531.753 165.391 531.986 174.482 531.984L217.43 532L215.609 538.894C208.148 539.668 200.32 539.318 192.825 539.32L147.09 539.022C147.015 536.771 147.077 534.512 147.101 532.259Z"/>
	<path fill="#FFF9C7" d="M804.935 657.482L832.418 657.5C828.618 664.919 824.828 672.505 820.562 679.664C818.754 682.699 816.34 687.393 812.705 688.312C803.264 688.104 793.813 688.089 784.369 687.998C793.178 678.901 799.192 668.663 804.935 657.482Z"/>
	<path fill="#FFF9C7" d="M243.245 621.25L258.671 620.991C258.419 624.699 257.931 628.345 257.403 632.022L157.326 632.269L142.267 632.016L142.226 621.487L243.245 621.25Z"/>
	<path fill="#FFF9C7" d="M421.868 621.243C441.669 621.615 461.449 621.289 481.25 621.244L576.527 621.231C600.436 621.217 624.281 620.996 648.19 621.502C647.916 624.187 647.91 629.778 646.359 631.865C638.316 633.01 629.795 632.384 621.661 632.41L577.321 632.487L419.962 632.034C419.676 629.247 418.424 623.728 420.281 621.405L421.868 621.243Z"/>
	<path fill="#FFF9C7" d="M879.35 543.557L879.695 543.879C881.906 551.027 880.228 589.52 880.031 599.167C876.133 603.01 872.555 607.239 868.899 611.313C848.533 612.11 828.13 611.659 807.753 611.512C806.405 606.982 804.913 602.634 802.991 598.311C799.328 590.038 793.685 582.988 788.3 575.795C803.927 571.162 819.077 565.348 834.369 559.734L879.35 543.557Z"/>
	<path fill="#FFF9C7" d="M360.957 395.732L372.984 395.76Q362.22 429.576 348.653 462.367C326.383 461.921 304.028 462.282 281.75 462.281Q275.502 462.304 269.256 462.181C272.874 452.724 277.509 443.718 281.886 434.599Q288.931 419.86 295.53 404.917C315.59 396.446 339.503 396.784 360.957 395.732Z"/>
	<path fill="#FBE180" d="M415.401 656.63C462.839 657.93 510.495 656.763 557.948 656.5C569.407 666.243 580.186 677.219 591.192 687.501L573.22 687.496L396.452 687.986C404.323 678.471 410.826 668.111 415.401 656.63Z"/>
	<path fill="#FFF9C7" d="M396.686 395.738C410.519 395.535 424.408 395.971 438.249 395.981C449.702 395.989 480.384 394.23 489.494 397.307C491.073 397.841 492.234 398.362 492.929 399.951C493.794 401.927 493.839 404.383 493.882 406.516C494.017 413.146 493.143 419.824 493.12 426.467C493.088 435.583 494.123 444.826 493.4 453.929C493.159 456.954 492.71 459.58 491.503 462.405C481.44 463.423 470.874 462.546 460.75 462.5L398.304 462.396C385.976 462.371 373.587 462.604 361.272 462.145C370.526 440.928 378.048 418.195 385.305 396.207L396.686 395.738Z"/>
	<path fill="#FFF9C7" d="M334.792 578.189C347.832 576.955 360.217 580.219 370.725 588.141C381.944 596.599 389.204 608.479 391.147 622.406C393.153 636.794 389.555 652.056 380.717 663.691C371.777 675.459 358.035 681.845 343.62 683.835C330.648 684.746 317.148 681.132 306.795 673.127C295.474 664.374 288.304 652.346 286.606 638.081Q286.437 636.738 286.335 635.387Q286.233 634.037 286.199 632.684Q286.165 631.33 286.198 629.977Q286.231 628.623 286.332 627.273Q286.433 625.923 286.601 624.579Q286.77 623.236 287.005 621.902Q287.24 620.569 287.541 619.249Q287.842 617.929 288.209 616.626Q288.576 615.322 289.007 614.039Q289.439 612.756 289.934 611.495Q290.429 610.235 290.986 609.001Q291.543 607.767 292.161 606.563Q292.779 605.358 293.457 604.186Q294.135 603.014 294.87 601.877Q295.605 600.74 296.396 599.641Q297.187 598.542 298.032 597.484C307.037 586.237 320.627 579.722 334.792 578.189Z"/>
	<path fill="#016670" d="M335.101 597.612C342.92 597.009 350.509 598.685 357.122 602.994Q357.833 603.447 358.52 603.935Q359.207 604.424 359.869 604.946Q360.53 605.468 361.165 606.022Q361.8 606.577 362.406 607.162Q363.012 607.748 363.588 608.363Q364.165 608.978 364.709 609.622Q365.254 610.265 365.765 610.935Q366.277 611.605 366.754 612.299Q367.232 612.994 367.674 613.711Q368.116 614.429 368.521 615.168Q368.927 615.907 369.295 616.665Q369.663 617.423 369.993 618.199Q370.322 618.975 370.612 619.766Q370.903 620.558 371.153 621.362Q371.403 622.167 371.613 622.984Q371.823 623.8 371.991 624.626Q372.147 625.416 372.263 626.213Q372.38 627.009 372.456 627.811Q372.532 628.613 372.568 629.417Q372.604 630.222 372.599 631.027Q372.595 631.832 372.55 632.636Q372.505 633.44 372.419 634.241Q372.334 635.041 372.209 635.837Q372.083 636.632 371.918 637.42Q371.753 638.208 371.549 638.987Q371.344 639.766 371.101 640.534Q370.858 641.301 370.576 642.056Q370.295 642.81 369.976 643.549Q369.657 644.289 369.301 645.011Q368.946 645.734 368.554 646.437Q368.163 647.141 367.736 647.824Q367.31 648.507 366.85 649.168C361.249 657.331 353.022 662.107 343.382 663.876C335.648 664.787 327.45 663.214 320.833 658.995Q320.174 658.569 319.537 658.111Q318.9 657.654 318.286 657.166Q317.672 656.678 317.082 656.16Q316.493 655.643 315.929 655.097Q315.365 654.551 314.829 653.979Q314.293 653.406 313.785 652.808Q313.277 652.21 312.799 651.588Q312.321 650.966 311.874 650.322Q311.427 649.677 311.011 649.012Q310.596 648.346 310.214 647.661Q309.832 646.976 309.484 646.273Q309.135 645.57 308.822 644.851Q308.508 644.132 308.23 643.398Q307.951 642.665 307.709 641.919Q307.467 641.172 307.262 640.415Q307.056 639.658 306.888 638.892C304.896 629.87 306.266 620.178 311.376 612.399C316.957 603.903 325.353 599.597 335.101 597.612Z"/>
	<path fill="#FFF9C7" d="M725.106 577.668C737.484 576.055 750.852 579.576 761.118 586.555C772.338 594.183 780.892 606.969 783.414 620.33C786.017 634.118 783.184 649.351 775.231 660.957C765.819 674.693 753.043 680.476 737.15 683.342Q735.914 683.472 734.673 683.545Q733.432 683.618 732.188 683.635Q730.945 683.652 729.703 683.612Q728.46 683.571 727.221 683.475Q725.981 683.378 724.748 683.225Q723.514 683.072 722.288 682.863Q721.063 682.654 719.848 682.389Q718.633 682.125 717.432 681.805Q716.231 681.485 715.045 681.111Q713.859 680.737 712.692 680.309Q711.525 679.881 710.378 679.4Q709.232 678.92 708.108 678.387Q706.985 677.855 705.887 677.272Q704.789 676.689 703.718 676.057Q702.648 675.424 701.608 674.744Q700.567 674.063 699.559 673.336C688.292 665.275 680.901 653.603 678.647 639.897Q678.431 638.583 678.28 637.259Q678.128 635.936 678.041 634.607Q677.954 633.278 677.932 631.946Q677.91 630.614 677.952 629.283Q677.995 627.952 678.102 626.624Q678.21 625.297 678.381 623.976Q678.553 622.655 678.789 621.344Q679.025 620.033 679.324 618.735Q679.623 617.437 679.985 616.156Q680.347 614.874 680.771 613.611Q681.195 612.349 681.68 611.108Q682.165 609.867 682.71 608.652Q683.254 607.437 683.858 606.249Q684.461 605.061 685.121 603.905Q685.781 602.748 686.497 601.625Q687.213 600.501 687.982 599.414C697.042 586.807 710.002 580.061 725.106 577.668Z"/>
	<path fill="#016670" d="M728.062 597.608C736.625 597.027 744.942 599.163 751.74 604.53Q752.375 605.033 752.984 605.567Q753.594 606.101 754.175 606.664Q754.758 607.228 755.311 607.82Q755.864 608.411 756.388 609.029Q756.911 609.648 757.403 610.291Q757.896 610.935 758.355 611.602Q758.815 612.269 759.241 612.958Q759.667 613.647 760.059 614.356Q760.45 615.065 760.806 615.793Q761.162 616.521 761.481 617.265Q761.8 618.01 762.083 618.769Q762.365 619.529 762.609 620.301Q762.853 621.074 763.058 621.857Q763.264 622.641 763.43 623.434Q763.597 624.226 763.724 625.027Q763.851 625.827 763.938 626.632C764.912 635.316 762.631 644.771 756.985 651.562C751.113 658.625 742.573 661.953 733.623 662.738C727.025 663.697 719.941 662.266 714.172 658.968C706.67 654.677 701.422 647.668 699.202 639.341Q698.995 638.563 698.826 637.776Q698.658 636.988 698.529 636.193Q698.4 635.398 698.31 634.598Q698.221 633.798 698.172 632.994Q698.122 632.19 698.113 631.385Q698.104 630.58 698.135 629.775Q698.165 628.97 698.236 628.168Q698.307 627.366 698.418 626.568Q698.529 625.771 698.679 624.98Q698.83 624.189 699.019 623.406Q699.209 622.623 699.437 621.851Q699.665 621.079 699.932 620.319Q700.198 619.559 700.502 618.813Q700.806 618.068 701.147 617.338Q701.488 616.609 701.865 615.897Q702.241 615.185 702.653 614.493C708.613 604.466 717.139 600.378 728.062 597.608Z"/>
	<path fill="#FFF9C7" d="M566.507 345.389C612.302 352.601 657.722 361.803 703.392 369.76C747.594 377.461 792.336 383.841 836.039 394.006C825.485 399.334 814.394 403.053 803.461 407.467C787.611 413.867 771.889 420.626 756.124 427.232L566.506 505.631Q565.865 425.51 566.507 345.389Z"/>
	<path fill="#FFF9C7" d="M354.794 724.123C378.349 723.08 401.807 723.995 425.367 724.001L564.44 724.025L663.199 724.206C674.3 724.208 685.385 724.55 696.478 724.581C704.288 724.603 712.491 724.075 720.254 724.827L793.933 725.013C779.878 741 765.339 756.328 749.259 770.317C686.369 825.031 601.172 856.23 518.086 857.631C508.795 857.787 499.534 857.924 490.257 857.266C463.641 855.376 437.031 849.733 411.626 841.674C340.52 819.119 286.692 779.854 238.131 723.714C277.015 724.359 315.915 723.502 354.794 724.123Z"/>
	<path fill="#FBE180" d="M354.794 724.123C378.349 723.08 401.807 723.995 425.367 724.001L564.44 724.025L663.199 724.206C674.3 724.208 685.385 724.55 696.478 724.581C704.288 724.603 712.491 724.075 720.254 724.827C708.89 725.163 697.417 724.822 686.042 724.783C670.289 735.786 651.761 744.431 634.171 752.005C561.48 783.303 477.862 787.016 405.083 754.007C393.907 748.938 382.233 743.08 371.834 736.554C368.074 734.193 358.147 725.286 355.448 724.334C355.232 724.257 355.012 724.193 354.794 724.123Z"/>
	<path fill="#FFF9C7" d="M366.375 368.731C392.943 368.482 419.58 368.98 446.159 368.974L473.702 368.967C481.739 368.965 489.958 368.576 497.883 370.131C503.317 371.197 508.288 373.95 512.309 377.732C516.705 381.866 520.675 388.059 521.774 394.06C523.006 400.79 522.523 408.077 522.523 414.904L522.492 446.019L522.43 519.819C522.311 539.897 521.879 559.919 522.345 579.999C550.259 566.183 579.188 553.933 607.633 541.24L734.329 484.383Q784.757 461.544 835.43 439.256C850.275 432.741 864.833 425.062 880.154 419.769Q880.282 430.038 880.015 440.305C845.061 459.465 809.31 477.408 773.809 495.539L680.213 543.376C647.283 559.806 613.584 575.198 581.333 592.928C595.99 588.846 610.416 582.677 624.547 577.063L680.557 554.871C715.749 540.959 751.758 528.901 787.248 515.739L838.987 496.421C852.721 491.276 866.384 485.992 880.431 481.741C880.369 491.122 880.333 500.545 879.636 509.904C873.649 514.704 867.106 519.025 860.858 523.487Q841.223 537.489 821.258 551.017C809.853 558.698 797.965 566.227 787.6 575.283C778.302 566.128 767.144 558.742 754.674 554.746C733.554 547.977 710.712 551.098 691.192 561.218C670.497 571.947 657.693 589.677 650.675 611.511C603.79 611.6 556.917 610.787 510.034 611.761C509.64 611.195 509.513 610.457 509.477 609.773C508.994 600.331 509.432 590.683 509.367 581.216C509.211 558.799 509.065 536.276 508.046 513.882C507.575 503.535 506.68 493.433 504.887 483.228C500.632 526.192 499.983 568.639 499.988 611.759Q458.954 611.288 417.92 611.82C414.84 604.192 412.106 596.586 407.901 589.461Q406.946 587.824 405.911 586.237Q404.877 584.649 403.765 583.115Q402.653 581.581 401.466 580.104Q400.28 578.626 399.021 577.209Q397.763 575.792 396.437 574.439Q395.11 573.087 393.718 571.801Q392.326 570.516 390.872 569.3Q389.418 568.085 387.905 566.944Q386.393 565.802 384.826 564.736Q383.259 563.671 381.641 562.684Q380.023 561.698 378.359 560.792Q376.694 559.887 374.987 559.065Q373.279 558.243 371.534 557.507Q369.788 556.771 368.007 556.122Q366.227 555.472 364.417 554.912Q362.607 554.352 360.771 553.882Q359.773 553.623 358.77 553.39Q357.766 553.156 356.756 552.947Q355.747 552.739 354.733 552.556Q353.719 552.372 352.7 552.215Q351.682 552.057 350.66 551.925Q349.638 551.792 348.612 551.686Q347.587 551.579 346.56 551.498Q345.533 551.417 344.503 551.362Q343.474 551.306 342.444 551.277Q341.414 551.247 340.383 551.243Q339.353 551.24 338.322 551.262Q337.292 551.284 336.262 551.331Q335.233 551.379 334.205 551.453Q333.177 551.526 332.151 551.625Q331.125 551.724 330.102 551.849Q329.079 551.974 328.059 552.124Q327.04 552.275 326.024 552.45Q325.009 552.626 323.998 552.827Q322.987 553.028 321.982 553.255Q320.976 553.481 319.977 553.732Q318.977 553.984 317.984 554.26Q316.991 554.536 316.006 554.838Q315.02 555.139 314.042 555.464Q313.064 555.79 312.095 556.14Q311.126 556.49 310.165 556.864Q309.205 557.238 308.254 557.636Q307.304 558.034 306.363 558.456Q305.423 558.877 304.493 559.322Q303.564 559.767 302.645 560.235Q301.727 560.703 300.821 561.194Q299.915 561.685 299.021 562.199Q298.128 562.712 297.247 563.248C279.85 573.705 266.386 590.736 261.535 610.515L124.881 610.28C126.192 601.015 127.258 591.743 128.697 582.489C151.612 582.161 174.544 581.626 197.459 581.548C221.37 581.467 245.846 582.114 269.59 578.975C268.658 577.745 267.695 576.535 266.521 575.524C258.343 568.48 239.001 571.077 228.825 571.577C232.426 565.648 237.899 561.132 241.464 555.151C245.066 549.109 246.435 541.841 250.882 536.298C253.168 533.449 255.763 532.05 258.915 530.363C252.376 532.294 246.039 534.584 239.666 536.994C233.976 547.829 232.566 560.872 226.407 571.302C225.813 571.386 225.21 571.489 224.607 571.462C223.397 571.41 222.263 571.184 221.392 570.304C220.554 564.936 229.28 534.371 231.237 527.742C257.14 516.026 283.781 508.25 311.238 501.154C321.388 498.531 332.035 496.82 341.98 493.596C334.825 493.935 327.68 494.911 320.566 495.717C293.932 498.735 268.089 503.835 242.172 510.628C230.006 513.817 218.173 519.796 205.659 521.493C193.864 523.093 180.824 522.037 168.866 521.997C164.039 521.981 158.196 522.59 153.471 521.829C152.753 521.714 152.25 521.381 151.684 520.954C150.805 519.429 151.286 517.815 151.516 516.158C162.293 512.901 172.963 509.031 183.634 505.429C200.912 499.597 218.246 493.797 235.431 487.704C246.031 483.946 256.634 478.224 267.685 476.129C274.771 474.786 282.269 475.383 289.45 475.379Q301.192 475.314 312.932 475.07Q375.254 474.174 437.582 474.476C449.066 474.471 460.561 474.381 472.044 474.518C478.148 474.591 484.362 475.248 490.449 474.684C495.462 474.22 500.815 472.946 504.051 468.761C505.992 466.25 506.829 463.205 507.297 460.117C508.652 451.183 507.565 441.255 507.543 432.228C507.519 422.247 508.714 411.154 507.106 401.324C506.235 395.999 504.329 391.571 499.771 388.445C496.701 386.34 493.345 385.35 489.687 384.949C481.756 384.079 473.579 384.473 465.61 384.489L428.248 384.524L376.343 384.489C354.504 384.355 333.319 383.874 311.688 387.523C327.249 372.23 345.584 369.848 366.375 368.731Z"/>
	<path fill="#016670" d="M472.897 499.711C473.816 499.628 474.739 499.538 475.661 499.502C477.492 499.429 478.991 499.7 480.343 501.069Q480.662 501.396 480.949 501.751Q481.236 502.107 481.487 502.488Q481.738 502.87 481.952 503.274Q482.165 503.678 482.339 504.1Q482.513 504.523 482.645 504.96Q482.778 505.397 482.868 505.845Q482.958 506.292 483.004 506.747Q483.051 507.201 483.054 507.658C483.061 509.554 482.356 511.592 480.784 512.763C475.772 516.498 460.362 513.284 454.574 512.635C451.532 512.35 445.981 512.463 443.562 510.591C442.027 509.402 441.581 508.071 441.355 506.216C441.593 505.238 441.762 504.708 442.48 503.958C446.379 499.885 466.475 500.123 472.897 499.711Z"/>
	<path fill="#FFF9C7" d="M170.093 480.835C172.356 447.434 179.277 415.744 191.498 384.53Q193.03 380.597 194.658 376.703Q196.286 372.808 198.01 368.956Q199.734 365.103 201.551 361.293Q203.369 357.484 205.281 353.72Q207.192 349.957 209.195 346.242Q211.198 342.526 213.292 338.862Q215.386 335.197 217.57 331.585Q219.754 327.973 222.026 324.415Q224.298 320.858 226.656 317.358Q229.015 313.857 231.46 310.416Q233.904 306.975 236.432 303.595Q238.96 300.215 241.571 296.898Q244.182 293.582 246.873 290.33Q249.565 287.079 252.335 283.895Q255.106 280.711 257.955 277.596Q260.803 274.481 263.727 271.437Q266.651 268.393 269.649 265.422Q272.648 262.451 275.718 259.555Q278.788 256.658 281.929 253.838Q285.07 251.018 288.279 248.277Q291.488 245.535 294.764 242.873Q298.04 240.212 301.38 237.631Q304.721 235.051 308.123 232.553Q311.526 230.056 314.99 227.643Q318.453 225.23 321.974 222.904Q325.496 220.577 329.074 218.337Q332.652 216.098 336.284 213.947Q339.915 211.796 343.599 209.736Q347.283 207.675 351.016 205.706Q354.75 203.736 358.53 201.86Q362.311 199.983 366.137 198.2Q369.962 196.416 373.831 194.728Q377.832 192.983 381.875 191.336Q385.917 189.689 389.999 188.143Q394.081 186.596 398.2 185.15Q402.318 183.704 406.471 182.36Q410.624 181.015 414.809 179.774Q418.994 178.532 423.208 177.393Q427.422 176.255 431.662 175.22Q435.903 174.185 440.168 173.255Q444.433 172.325 448.719 171.5Q453.005 170.675 457.311 169.956Q461.616 169.236 465.938 168.623Q470.26 168.009 474.595 167.502Q478.931 166.995 483.278 166.595Q487.624 166.195 491.979 165.902Q496.335 165.608 500.696 165.422Q505.057 165.236 509.421 165.157Q513.786 165.078 518.151 165.107Q522.516 165.135 526.879 165.271Q531.242 165.406 535.6 165.649Q539.958 165.892 544.309 166.242Q548.66 166.592 553.002 167.049Q557.343 167.505 561.671 168.069Q566 168.632 570.313 169.301Q574.627 169.971 578.922 170.746Q583.218 171.522 587.494 172.402Q591.769 173.283 596.021 174.268Q600.274 175.254 604.5 176.344Q608.727 177.433 612.926 178.627Q617.125 179.82 621.293 181.116Q625.461 182.412 629.597 183.81Q633.732 185.209 637.831 186.708Q641.931 188.207 645.992 189.807Q649.348 191.149 652.676 192.557Q656.005 193.964 659.306 195.436Q662.607 196.908 665.878 198.444Q669.149 199.98 672.39 201.58Q675.631 203.18 678.84 204.843Q682.048 206.505 685.224 208.23Q688.4 209.955 691.542 211.742Q694.683 213.529 697.789 215.376Q700.895 217.224 703.965 219.132Q707.034 221.04 710.066 223.007Q713.097 224.975 716.09 227.001Q719.083 229.027 722.035 231.111Q724.988 233.196 727.899 235.337Q730.81 237.479 733.679 239.676Q736.548 241.874 739.374 244.128Q742.199 246.381 744.98 248.689Q747.761 250.998 750.497 253.36Q753.232 255.722 755.921 258.137Q758.61 260.551 761.251 263.018Q763.892 265.485 766.484 268.003Q769.077 270.521 771.62 273.09Q774.163 275.658 776.655 278.275Q779.147 280.892 781.588 283.558Q784.029 286.223 786.417 288.936Q788.805 291.648 791.14 294.407Q793.475 297.166 795.755 299.969Q798.036 302.773 800.261 305.621Q802.487 308.468 804.656 311.359Q806.825 314.249 808.938 317.182Q811.051 320.114 813.106 323.087Q815.161 326.06 817.157 329.073Q819.154 332.085 821.091 335.136C828.226 346.441 835.232 357.614 840.558 369.912C827.275 366.549 813.633 364.551 800.156 362.149Q767.604 356.397 735.127 350.232C727.129 349.703 719.157 347.861 711.277 346.455L673.605 339.729Q606.725 328.012 540.144 314.704C539.595 333.559 540.091 352.508 539.905 371.378C536.385 366.771 532.596 362.388 528.262 358.522C521.358 352.362 513.166 347.775 504.07 345.875C490.391 343.017 475.885 343.951 461.961 343.949L397.763 344.459C380.183 344.635 362.604 343.337 345.022 344.317Q336.713 345.472 328.62 347.68C311.298 355.371 296.97 364.135 284.789 378.926C280.963 385.308 277.514 394.246 272.286 399.458C262.799 419.061 253.435 438.63 243.549 458.045C232.414 461.967 221.006 465.241 209.746 468.798C196.553 472.965 183.492 477.354 170.093 480.835Z"/>
	<path fill="#FFF9C7" d="M316.035 340.982C323.243 341.483 339.146 341.485 345.022 344.317Q336.713 345.472 328.62 347.68L327.928 347.426C324.987 345.759 307.83 347.103 303.358 347.281C304.923 345.044 306.577 343.101 308.441 341.117L316.035 340.982Z"/>
	<path fill="#9FEDD8" d="M327.928 347.426L328.62 347.68C311.298 355.371 296.97 364.135 284.789 378.926C280.963 385.308 277.514 394.246 272.286 399.458C273.929 392.058 278.689 383.036 283.216 376.945C285.505 370.095 298.363 353.994 303.344 347.526L327.928 347.426Z"/>
	<path fill="#9FEDD8" d="M362.987 292.017C393.883 267.629 445.851 250.298 484.727 245.646C544.45 238.499 622.194 253.912 670.148 291.558C674.62 292.63 677.815 295.667 680.971 298.84C671.498 298.825 660.11 297.908 650.85 299.076C644.254 299.512 637.336 299.069 630.703 299.054L588.674 299.01C550.724 299.095 512.799 299.837 474.85 299.084C469.385 297.922 446.304 298.799 438.968 298.801L386.396 298.834C375.095 298.847 363.709 298.623 352.423 299.204C355.698 296.086 358.976 294.049 362.987 292.017Z"/>
	<path fill="#FFF9C7" d="M670.148 291.558C674.62 292.63 677.815 295.667 680.971 298.84C671.498 298.825 660.11 297.908 650.85 299.076C644.254 299.512 637.336 299.069 630.703 299.054L588.674 299.01C550.724 299.095 512.799 299.837 474.85 299.084C469.385 297.922 446.304 298.799 438.968 298.801L386.396 298.834C375.095 298.847 363.709 298.623 352.423 299.204C355.698 296.086 358.976 294.049 362.987 292.017C377.862 291.492 392.735 291.838 407.612 291.939L462.794 291.979L670.148 291.558Z"/>
	<path fill="#9FEDD8" d="M474.85 299.084C512.799 299.837 550.724 299.095 588.674 299.01L630.703 299.054C637.336 299.069 644.254 299.512 650.85 299.076C660.833 299.868 671.124 299.375 681.14 299.371C698.288 309.223 722.207 334.97 735.127 350.232C727.129 349.703 719.157 347.861 711.277 346.455L673.605 339.729Q606.725 328.012 540.144 314.704C539.595 333.559 540.091 352.508 539.905 371.378C536.385 366.771 532.596 362.388 528.262 358.522C521.358 352.362 513.166 347.775 504.07 345.875C490.391 343.017 475.885 343.951 461.961 343.949L397.763 344.459C380.183 344.635 362.604 343.337 345.022 344.317C339.146 341.485 323.243 341.483 316.035 340.982C313.94 340.38 311.579 340.503 309.406 340.44C322.826 325.729 336.719 312.35 351.964 299.52L435.925 299.304L461.003 299.289C465.554 299.285 470.335 299.574 474.85 299.084Z"/>
</svg>
